<svg xmlns="http://www.w3.org/2000/svg" viewBox="161 135 470 342" role="img" aria-label="Nelixia">
  <path fill="#8f8732" d="M 221.65625 400.007812 L 221.65625 449.222656 L 220.121094 449.222656 L 219.902344 448.976562 L 175.96875 400.007812 L 170.730469 400.007812 L 170.730469 465.882812 L 174.304688 465.882812 L 174.304688 412.683594 L 175.789062 412.683594 L 223.582031 467.476562 L 225.117188 467.476562 L 225.117188 400.007812 Z M 221.65625 400.007812"/>
  <path fill="#8f8732" d="M 300.46875 463.050781 L 264.964844 463.050781 L 264.964844 431.289062 L 288.691406 431.289062 L 288.691406 428.457031 L 264.964844 428.457031 L 264.964844 402.839844 L 300.46875 402.839844 L 300.46875 400.007812 L 255.132812 400.007812 L 255.132812 465.882812 L 300.46875 465.882812 Z M 300.46875 463.050781"/>
  <path fill="#8f8732" d="M 334.15625 400.007812 L 324.320312 400.007812 L 324.320312 465.882812 L 368.007812 465.882812 L 368.007812 463.050781 L 334.15625 463.050781 Z M 334.15625 400.007812"/>
  <path fill="#8f8732" d="M 405.4375 400.007812 L 395.605469 400.007812 L 395.605469 465.882812 L 405.4375 465.882812 Z M 405.4375 400.007812"/>
  <path fill="#8f8732" d="M 492.851562 400.007812 L 488.785156 400.007812 L 466.386719 426.339844 L 446.476562 400.007812 L 434.921875 400.007812 L 460.265625 433.429688 L 432.535156 465.882812 L 436.546875 465.882812 L 462.074219 435.96875 L 484.714844 465.882812 L 496.328125 465.882812 L 468.195312 428.820312 Z M 492.851562 400.007812"/>
  <path fill="#8f8732" d="M 532.320312 400.007812 L 522.484375 400.007812 L 522.484375 465.882812 L 532.320312 465.882812 Z M 532.320312 400.007812"/>
  <path fill="#8f8732" d="M 588.425781 398.46875 L 556.636719 465.882812 L 560.683594 465.882812 L 567.6875 451.160156 L 604.710938 451.160156 L 611.414062 465.882812 L 621.269531 465.882812 L 590.261719 398.46875 Z M 586.367188 411.382812 L 603.347656 448.269531 L 568.976562 448.269531 Z M 586.367188 411.382812"/>
  <path fill="#8f8732" d="M 395.953125 264.46875 L 370.464844 280.75 L 359.464844 273.746094 L 395.953125 250.550781 Z M 395.953125 296.972656 L 379.847656 286.722656 L 395.953125 276.4375 Z M 338.640625 260.492188 L 380.078125 234.144531 L 391.511719 241.421875 L 350.074219 267.769531 Z M 317.8125 247.234375 L 359.25 220.890625 L 370.683594 228.167969 L 329.246094 254.511719 Z M 406.039062 276.527344 L 422.027344 286.703125 L 406.039062 296.867188 Z M 406.039062 250.664062 L 442.355469 273.777344 L 431.421875 280.730469 L 406.039062 264.574219 Z M 421.730469 234.15625 L 463.179688 260.539062 L 451.75 267.804688 L 410.300781 241.421875 Z M 442.554688 220.914062 L 484.007812 247.296875 L 472.578125 254.5625 L 431.125 228.179688 Z M 491.851562 280.753906 C 493.90625 275.902344 495.570312 270.847656 496.839844 265.636719 L 406.039062 323.363281 L 406.039062 308.820312 L 499.371094 249.476562 C 499.550781 247.035156 499.675781 244.578125 499.675781 242.09375 C 499.675781 240.523438 499.628906 238.964844 499.554688 237.414062 L 493.40625 241.324219 L 451.953125 214.9375 L 463.378906 207.671875 L 498.953125 230.3125 C 498.40625 225.679688 497.550781 221.140625 496.386719 216.722656 L 472.777344 201.699219 L 486.601562 192.910156 C 484.925781 189.980469 483.109375 187.152344 481.152344 184.421875 L 406.039062 232.179688 L 406.039062 217.640625 L 473.359375 174.839844 C 471.011719 172.300781 468.53125 169.890625 465.933594 167.609375 L 406.039062 205.6875 L 406.039062 191.144531 L 455.59375 159.636719 C 452.460938 157.542969 449.191406 155.636719 445.820312 153.902344 L 406.039062 179.195312 L 406.039062 164.648438 L 432.074219 148.09375 C 427.746094 146.644531 423.289062 145.484375 418.71875 144.632812 L 400.910156 155.957031 L 382.949219 144.523438 C 378.347656 145.347656 373.855469 146.484375 369.5 147.917969 L 395.953125 164.753906 L 395.953125 179.296875 L 355.683594 153.664062 C 352.296875 155.386719 349.015625 157.285156 345.867188 159.371094 L 395.953125 191.25 L 395.953125 205.792969 L 335.472656 167.296875 C 332.859375 169.570312 330.367188 171.972656 328.007812 174.5 L 395.953125 217.75 L 395.953125 232.296875 L 320.15625 184.050781 C 318.1875 186.769531 316.355469 189.59375 314.667969 192.515625 L 329.035156 201.65625 L 304.507812 217.25 C 303.375 221.644531 302.554688 226.164062 302.03125 230.773438 L 338.425781 207.632812 L 349.859375 214.914062 L 308.421875 241.257812 L 301.507812 236.859375 C 301.417969 238.589844 301.371094 240.335938 301.371094 242.09375 C 301.371094 244.378906 301.476562 246.640625 301.628906 248.890625 L 395.953125 308.925781 L 395.953125 323.46875 L 304.054688 264.972656 C 305.277344 270.15625 306.894531 275.179688 308.894531 280.011719 L 400.910156 338.578125 Z M 491.851562 280.753906"/>
</svg>
